<svg width="16" height="17" viewBox="0 0 16 17" fill="none" xmlns="http://www.w3.org/2000/svg">
<path d="M10.6668 5.16667C10.6668 5.87391 10.3859 6.55219 9.88578 7.05229C9.38568 7.55238 8.70741 7.83333 8.00016 7.83333C7.29292 7.83333 6.61464 7.55238 6.11454 7.05229C5.61445 6.55219 5.3335 5.87391 5.3335 5.16667C5.3335 4.45942 5.61445 3.78115 6.11454 3.28105C6.61464 2.78095 7.29292 2.5 8.00016 2.5C8.70741 2.5 9.38568 2.78095 9.88578 3.28105C10.3859 3.78115 10.6668 4.45942 10.6668 5.16667V5.16667ZM8.00016 9.83333C6.76249 9.83333 5.5755 10.325 4.70033 11.2002C3.82516 12.0753 3.3335 13.2623 3.3335 14.5H12.6668C12.6668 13.2623 12.1752 12.0753 11.3 11.2002C10.4248 10.325 9.23784 9.83333 8.00016 9.83333V9.83333Z" stroke="#9AA1B0" stroke-linecap="round" stroke-linejoin="round"/>
</svg>
