<svg width="14" height="15" viewBox="0 0 14 15" fill="none" xmlns="http://www.w3.org/2000/svg">
<path d="M13.2735 7.10659L7.38683 1.21992C7.14016 0.973252 6.80016 0.833252 6.44683 0.833252H1.66683C0.933496 0.833252 0.333496 1.43325 0.333496 2.16659V6.94659C0.333496 7.29992 0.473496 7.63992 0.726829 7.88659L6.6135 13.7733C7.1335 14.2933 7.98016 14.2933 8.50016 13.7733L13.2802 8.99325C13.8002 8.47325 13.8002 7.63325 13.2735 7.10659ZM7.5535 12.8333L1.66683 6.94659V2.16659H6.44683L12.3335 8.05325L7.5535 12.8333Z" fill="#646C80"/>
<path d="M3.3335 4.83325C3.88578 4.83325 4.3335 4.38554 4.3335 3.83325C4.3335 3.28097 3.88578 2.83325 3.3335 2.83325C2.78121 2.83325 2.3335 3.28097 2.3335 3.83325C2.3335 4.38554 2.78121 4.83325 3.3335 4.83325Z" fill="#646C80"/>
</svg>
