<svg width="16" height="17" viewBox="0 0 16 17" fill="none" xmlns="http://www.w3.org/2000/svg">
<path d="M8.6665 2.5C5.35317 2.5 2.6665 5.18667 2.6665 8.5H0.666504L3.25984 11.0933L3.3065 11.1867L5.99984 8.5H3.99984C3.99984 5.92 6.0865 3.83333 8.6665 3.83333C11.2465 3.83333 13.3332 5.92 13.3332 8.5C13.3332 11.08 11.2465 13.1667 8.6665 13.1667C7.37984 13.1667 6.21317 12.64 5.37317 11.7933L4.4265 12.74C5.51317 13.8267 7.0065 14.5 8.6665 14.5C11.9798 14.5 14.6665 11.8133 14.6665 8.5C14.6665 5.18667 11.9798 2.5 8.6665 2.5ZM7.99984 5.83333V9.16667L10.8532 10.86L11.3332 10.0533L8.99984 8.66667V5.83333H7.99984Z" fill="#9AA1B0"/>
</svg>
