<svg width="16" height="17" viewBox="0 0 16 17" fill="none" xmlns="http://www.w3.org/2000/svg">
<path d="M6.00016 3.83333H4.66683C4.31321 3.83333 3.97407 3.97381 3.72402 4.22386C3.47397 4.47391 3.3335 4.81304 3.3335 5.16667V13.1667C3.3335 13.5203 3.47397 13.8594 3.72402 14.1095C3.97407 14.3595 4.31321 14.5 4.66683 14.5H11.3335C11.6871 14.5 12.0263 14.3595 12.2763 14.1095C12.5264 13.8594 12.6668 13.5203 12.6668 13.1667V5.16667C12.6668 4.81304 12.5264 4.47391 12.2763 4.22386C12.0263 3.97381 11.6871 3.83333 11.3335 3.83333H10.0002M6.00016 3.83333C6.00016 4.18696 6.14064 4.52609 6.39069 4.77614C6.64074 5.02619 6.97987 5.16667 7.3335 5.16667H8.66683C9.02045 5.16667 9.35959 5.02619 9.60964 4.77614C9.85969 4.52609 10.0002 4.18696 10.0002 3.83333M6.00016 3.83333C6.00016 3.47971 6.14064 3.14057 6.39069 2.89052C6.64074 2.64048 6.97987 2.5 7.3335 2.5H8.66683C9.02045 2.5 9.35959 2.64048 9.60964 2.89052C9.85969 3.14057 10.0002 3.47971 10.0002 3.83333M8.00016 8.5H10.0002M8.00016 11.1667H10.0002M6.00016 8.5H6.00683M6.00016 11.1667H6.00683" stroke="#9AA1B0" stroke-linecap="round" stroke-linejoin="round"/>
</svg>
